<svg width="33" height="32" viewBox="0 0 33 32" fill="none" xmlns="http://www.w3.org/2000/svg">
<path d="M32.5638 12.8664H31.275V12.8H16.875V19.2H25.9174C24.5982 22.9256 21.0534 25.6 16.875 25.6C11.5734 25.6 7.275 21.3016 7.275 16C7.275 10.6984 11.5734 6.4 16.875 6.4C19.3222 6.4 21.5486 7.3232 23.2438 8.8312L27.7694 4.3056C24.9118 1.6424 21.0894 0 16.875 0C8.039 0 0.875 7.164 0.875 16C0.875 24.836 8.039 32 16.875 32C25.711 32 32.875 24.836 32.875 16C32.875 14.9272 32.7646 13.88 32.5638 12.8664Z" fill="#FFC107"/>
<path d="M2.7198 8.5528L7.9766 12.408C9.399 8.8864 12.8438 6.4 16.875 6.4C19.3222 6.4 21.5486 7.3232 23.2438 8.8312L27.7694 4.3056C24.9118 1.6424 21.0894 0 16.875 0C10.7294 0 5.3998 3.4696 2.7198 8.5528Z" fill="#FF3D00"/>
<path d="M16.875 32C21.0078 32 24.763 30.4184 27.6022 27.8464L22.6502 23.656C21.0438 24.8728 19.047 25.6 16.875 25.6C12.7134 25.6 9.1798 22.9464 7.8486 19.2432L2.631 23.2632C5.279 28.4448 10.6566 32 16.875 32Z" fill="#4CAF50"/>
<path d="M32.5638 12.8664H31.275V12.8H16.875V19.2H25.9174C25.2838 20.9896 24.1326 22.5328 22.6478 23.6568C22.6486 23.656 22.6494 23.6568 22.6502 23.656L27.6022 27.8464C27.2518 28.1648 32.875 24 32.875 16C32.875 14.9272 32.7646 13.88 32.5638 12.8664Z" fill="#1976D2"/>
</svg>
